<svg xmlns="http://www.w3.org/2000/svg" width="800" height="1600" viewBox="0 0 800 1600"><defs>
      <filter id="blur8"><feGaussianBlur stdDeviation="8"/></filter>
      <filter id="blur20"><feGaussianBlur stdDeviation="20"/></filter>
      <filter id="jetShadow" x="-20%" y="-20%" width="150%" height="160%"><feDropShadow dx="0" dy="12" stdDeviation="16" flood-color="#10253B" flood-opacity=".18"/></filter>
      <linearGradient id="sky" x1="0" y1="0" x2="0" y2="1"><stop stop-color="#CADBE8"/><stop offset=".52" stop-color="#EEF0EF"/><stop offset="1" stop-color="#E6D4BF"/></linearGradient>
      <linearGradient id="tarmac" x1="0" y1="0" x2="1" y2="0"><stop stop-color="#94A3AF"/><stop offset=".5" stop-color="#B7BDC0"/><stop offset="1" stop-color="#968E88"/></linearGradient>
      <radialGradient id="sun"><stop stop-color="#F7D49A" stop-opacity=".9"/><stop offset="1" stop-color="#F7D49A" stop-opacity="0"/></radialGradient>
    </defs><defs><linearGradient id="sb" x1="0" y1="0" x2="0" y2="1"><stop stop-color="#0D2236"/><stop offset=".55" stop-color="#102D45"/><stop offset="1" stop-color="#173A54"/></linearGradient></defs><rect width="800" height="1600" fill="url(#sb)"/><circle cx="660" cy="250" r="360" fill="#fff" opacity=".022"/><g transform="translate(-430 870) scale(.92)" opacity=".1"><g transform="translate(0 0) scale(1)" filter="url(#jetShadow)">
      <ellipse cx="860" cy="610" rx="430" ry="34" fill="#172535" opacity=".18" filter="url(#blur8)"/>
      <path d="M455 430 C560 365 760 335 1080 350 C1210 357 1305 378 1365 405 C1402 422 1408 450 1375 468 C1325 493 1188 510 1010 518 L610 526 C530 526 468 502 438 470 C423 453 430 443 455 430Z" fill="#EEF2F5" stroke="#B8C3CC" stroke-width="5"/>
      <path d="M455 430 C560 365 760 335 1080 350 C1210 357 1305 378 1365 405" fill="none" stroke="#FFFFFF" stroke-width="12" opacity=".75"/>
      <path d="M490 484 C720 500 1050 500 1306 470" fill="none" stroke="#C7A56A" stroke-width="11" opacity=".95"/>
      <path d="M520 414 C690 368 980 356 1195 375" fill="none" stroke="#D9E1E6" stroke-width="7" opacity=".8"/>
      <path d="M1040 355 L1120 230 L1185 246 L1208 378Z" fill="#EEF2F5" stroke="#B8C3CC" stroke-width="5"/>
      <path d="M1075 350 L1135 270 L1186 281 L1198 376Z" fill="#C7A56A" opacity=".9"/>
      <path d="M775 504 L580 640 L700 648 L925 515Z" fill="#E7EBEE" stroke="#B8C3CC" stroke-width="5"/>
      <path d="M930 512 L1095 620 L1198 615 L1038 506Z" fill="#E1E6EA" stroke="#B8C3CC" stroke-width="5"/>
      <path d="M1160 384 L1290 325 L1342 337 L1265 395Z" fill="#E5EAED" stroke="#B8C3CC" stroke-width="4"/>
      <path d="M522 425 L453 381 L505 387 L585 411Z" fill="#E6EAED" stroke="#B8C3CC" stroke-width="4"/>
      <ellipse cx="885" cy="552" rx="83" ry="45" fill="#D8DFE5" stroke="#AEBAC4" stroke-width="5"/>
      <ellipse cx="885" cy="552" rx="46" ry="26" fill="#263D51"/>
      <ellipse cx="1082" cy="542" rx="76" ry="41" fill="#D8DFE5" stroke="#AEBAC4" stroke-width="5"/>
      <ellipse cx="1082" cy="542" rx="42" ry="24" fill="#263D51"/>
      <rect x="640" y="373" width="28" height="17" rx="8.5" fill="#1E3A53" opacity=".92"/><rect x="700" y="373" width="28" height="17" rx="8.5" fill="#1E3A53" opacity=".92"/><rect x="760" y="373" width="28" height="17" rx="8.5" fill="#1E3A53" opacity=".92"/><rect x="820" y="373" width="28" height="17" rx="8.5" fill="#1E3A53" opacity=".92"/><rect x="880" y="373" width="28" height="17" rx="8.5" fill="#1E3A53" opacity=".92"/><rect x="940" y="373" width="28" height="17" rx="8.5" fill="#1E3A53" opacity=".92"/><rect x="1000" y="373" width="28" height="17" rx="8.5" fill="#1E3A53" opacity=".92"/><rect x="1060" y="373" width="28" height="17" rx="8.5" fill="#1E3A53" opacity=".92"/>
      <path d="M552 401 C607 378 650 367 700 360 L700 404 L565 423Z" fill="#4A657A"/>
      <path d="M564 405 C598 391 627 382 655 376 L655 406 L570 421Z" fill="#7895AD" opacity=".6"/>
      <g stroke="#34495B" stroke-width="9" stroke-linecap="round"><path d="M680 520v65"/><path d="M1175 500v62"/></g>
      <g fill="#1A2632"><circle cx="680" cy="592" r="24"/><circle cx="1175" cy="570" r="22"/></g>
      <g fill="#7E8C99"><circle cx="680" cy="592" r="10"/><circle cx="1175" cy="570" r="9"/></g>
    </g></g><path d="M0 1330 C200 1280 560 1400 800 1320V1600H0Z" fill="#071725" opacity=".2"/></svg>